<svg xmlns="http://www.w3.org/2000/svg" viewBox="0 0 1000 1400" preserveAspectRatio="none"><path d="M 26.00 26.00 A 15.29 15.29 0 0 1 56.58 26.00 A 15.29 15.29 0 0 1 87.16 26.00 A 15.29 15.29 0 0 1 117.74 26.00 A 15.29 15.29 0 0 1 148.32 26.00 A 15.29 15.29 0 0 1 178.90 26.00 A 15.29 15.29 0 0 1 209.48 26.00 A 15.29 15.29 0 0 1 240.06 26.00 A 15.29 15.29 0 0 1 270.65 26.00 A 15.29 15.29 0 0 1 301.23 26.00 A 15.29 15.29 0 0 1 331.81 26.00 A 15.29 15.29 0 0 1 362.39 26.00 A 15.29 15.29 0 0 1 392.97 26.00 A 15.29 15.29 0 0 1 423.55 26.00 A 15.29 15.29 0 0 1 454.13 26.00 A 15.29 15.29 0 0 1 484.71 26.00 A 15.29 15.29 0 0 1 515.29 26.00 A 15.29 15.29 0 0 1 545.87 26.00 A 15.29 15.29 0 0 1 576.45 26.00 A 15.29 15.29 0 0 1 607.03 26.00 A 15.29 15.29 0 0 1 637.61 26.00 A 15.29 15.29 0 0 1 668.19 26.00 A 15.29 15.29 0 0 1 698.77 26.00 A 15.29 15.29 0 0 1 729.35 26.00 A 15.29 15.29 0 0 1 759.94 26.00 A 15.29 15.29 0 0 1 790.52 26.00 A 15.29 15.29 0 0 1 821.10 26.00 A 15.29 15.29 0 0 1 851.68 26.00 A 15.29 15.29 0 0 1 882.26 26.00 A 15.29 15.29 0 0 1 912.84 26.00 A 15.29 15.29 0 0 1 943.42 26.00 A 15.29 15.29 0 0 1 974.00 26.00 A 15.32 15.32 0 0 1 974.00 56.64 A 15.32 15.32 0 0 1 974.00 87.27 A 15.32 15.32 0 0 1 974.00 117.91 A 15.32 15.32 0 0 1 974.00 148.55 A 15.32 15.32 0 0 1 974.00 179.18 A 15.32 15.32 0 0 1 974.00 209.82 A 15.32 15.32 0 0 1 974.00 240.45 A 15.32 15.32 0 0 1 974.00 271.09 A 15.32 15.32 0 0 1 974.00 301.73 A 15.32 15.32 0 0 1 974.00 332.36 A 15.32 15.32 0 0 1 974.00 363.00 A 15.32 15.32 0 0 1 974.00 393.64 A 15.32 15.32 0 0 1 974.00 424.27 A 15.32 15.32 0 0 1 974.00 454.91 A 15.32 15.32 0 0 1 974.00 485.55 A 15.32 15.32 0 0 1 974.00 516.18 A 15.32 15.32 0 0 1 974.00 546.82 A 15.32 15.32 0 0 1 974.00 577.45 A 15.32 15.32 0 0 1 974.00 608.09 A 15.32 15.32 0 0 1 974.00 638.73 A 15.32 15.32 0 0 1 974.00 669.36 A 15.32 15.32 0 0 1 974.00 700.00 A 15.32 15.32 0 0 1 974.00 730.64 A 15.32 15.32 0 0 1 974.00 761.27 A 15.32 15.32 0 0 1 974.00 791.91 A 15.32 15.32 0 0 1 974.00 822.55 A 15.32 15.32 0 0 1 974.00 853.18 A 15.32 15.32 0 0 1 974.00 883.82 A 15.32 15.32 0 0 1 974.00 914.45 A 15.32 15.32 0 0 1 974.00 945.09 A 15.32 15.32 0 0 1 974.00 975.73 A 15.32 15.32 0 0 1 974.00 1006.36 A 15.32 15.32 0 0 1 974.00 1037.00 A 15.32 15.32 0 0 1 974.00 1067.64 A 15.32 15.32 0 0 1 974.00 1098.27 A 15.32 15.32 0 0 1 974.00 1128.91 A 15.32 15.32 0 0 1 974.00 1159.55 A 15.32 15.32 0 0 1 974.00 1190.18 A 15.32 15.32 0 0 1 974.00 1220.82 A 15.32 15.32 0 0 1 974.00 1251.45 A 15.32 15.32 0 0 1 974.00 1282.09 A 15.32 15.32 0 0 1 974.00 1312.73 A 15.32 15.32 0 0 1 974.00 1343.36 A 15.32 15.32 0 0 1 974.00 1374.00 A 15.29 15.29 0 0 1 943.42 1374.00 A 15.29 15.29 0 0 1 912.84 1374.00 A 15.29 15.29 0 0 1 882.26 1374.00 A 15.29 15.29 0 0 1 851.68 1374.00 A 15.29 15.29 0 0 1 821.10 1374.00 A 15.29 15.29 0 0 1 790.52 1374.00 A 15.29 15.29 0 0 1 759.94 1374.00 A 15.29 15.29 0 0 1 729.35 1374.00 A 15.29 15.29 0 0 1 698.77 1374.00 A 15.29 15.29 0 0 1 668.19 1374.00 A 15.29 15.29 0 0 1 637.61 1374.00 A 15.29 15.29 0 0 1 607.03 1374.00 A 15.29 15.29 0 0 1 576.45 1374.00 A 15.29 15.29 0 0 1 545.87 1374.00 A 15.29 15.29 0 0 1 515.29 1374.00 A 15.29 15.29 0 0 1 484.71 1374.00 A 15.29 15.29 0 0 1 454.13 1374.00 A 15.29 15.29 0 0 1 423.55 1374.00 A 15.29 15.29 0 0 1 392.97 1374.00 A 15.29 15.29 0 0 1 362.39 1374.00 A 15.29 15.29 0 0 1 331.81 1374.00 A 15.29 15.29 0 0 1 301.23 1374.00 A 15.29 15.29 0 0 1 270.65 1374.00 A 15.29 15.29 0 0 1 240.06 1374.00 A 15.29 15.29 0 0 1 209.48 1374.00 A 15.29 15.29 0 0 1 178.90 1374.00 A 15.29 15.29 0 0 1 148.32 1374.00 A 15.29 15.29 0 0 1 117.74 1374.00 A 15.29 15.29 0 0 1 87.16 1374.00 A 15.29 15.29 0 0 1 56.58 1374.00 A 15.29 15.29 0 0 1 26.00 1374.00 A 15.32 15.32 0 0 1 26.00 1343.36 A 15.32 15.32 0 0 1 26.00 1312.73 A 15.32 15.32 0 0 1 26.00 1282.09 A 15.32 15.32 0 0 1 26.00 1251.45 A 15.32 15.32 0 0 1 26.00 1220.82 A 15.32 15.32 0 0 1 26.00 1190.18 A 15.32 15.32 0 0 1 26.00 1159.55 A 15.32 15.32 0 0 1 26.00 1128.91 A 15.32 15.32 0 0 1 26.00 1098.27 A 15.32 15.32 0 0 1 26.00 1067.64 A 15.32 15.32 0 0 1 26.00 1037.00 A 15.32 15.32 0 0 1 26.00 1006.36 A 15.32 15.32 0 0 1 26.00 975.73 A 15.32 15.32 0 0 1 26.00 945.09 A 15.32 15.32 0 0 1 26.00 914.45 A 15.32 15.32 0 0 1 26.00 883.82 A 15.32 15.32 0 0 1 26.00 853.18 A 15.32 15.32 0 0 1 26.00 822.55 A 15.32 15.32 0 0 1 26.00 791.91 A 15.32 15.32 0 0 1 26.00 761.27 A 15.32 15.32 0 0 1 26.00 730.64 A 15.32 15.32 0 0 1 26.00 700.00 A 15.32 15.32 0 0 1 26.00 669.36 A 15.32 15.32 0 0 1 26.00 638.73 A 15.32 15.32 0 0 1 26.00 608.09 A 15.32 15.32 0 0 1 26.00 577.45 A 15.32 15.32 0 0 1 26.00 546.82 A 15.32 15.32 0 0 1 26.00 516.18 A 15.32 15.32 0 0 1 26.00 485.55 A 15.32 15.32 0 0 1 26.00 454.91 A 15.32 15.32 0 0 1 26.00 424.27 A 15.32 15.32 0 0 1 26.00 393.64 A 15.32 15.32 0 0 1 26.00 363.00 A 15.32 15.32 0 0 1 26.00 332.36 A 15.32 15.32 0 0 1 26.00 301.73 A 15.32 15.32 0 0 1 26.00 271.09 A 15.32 15.32 0 0 1 26.00 240.45 A 15.32 15.32 0 0 1 26.00 209.82 A 15.32 15.32 0 0 1 26.00 179.18 A 15.32 15.32 0 0 1 26.00 148.55 A 15.32 15.32 0 0 1 26.00 117.91 A 15.32 15.32 0 0 1 26.00 87.27 A 15.32 15.32 0 0 1 26.00 56.64 A 15.32 15.32 0 0 1 26.00 26.00 Z" fill="none" stroke="#caa96a" stroke-width="2.2" vector-effect="non-scaling-stroke"/><path d="M 26.00 26.00 A 15.29 15.29 0 0 1 56.58 26.00 A 15.29 15.29 0 0 1 87.16 26.00 A 15.29 15.29 0 0 1 117.74 26.00 A 15.29 15.29 0 0 1 148.32 26.00 A 15.29 15.29 0 0 1 178.90 26.00 A 15.29 15.29 0 0 1 209.48 26.00 A 15.29 15.29 0 0 1 240.06 26.00 A 15.29 15.29 0 0 1 270.65 26.00 A 15.29 15.29 0 0 1 301.23 26.00 A 15.29 15.29 0 0 1 331.81 26.00 A 15.29 15.29 0 0 1 362.39 26.00 A 15.29 15.29 0 0 1 392.97 26.00 A 15.29 15.29 0 0 1 423.55 26.00 A 15.29 15.29 0 0 1 454.13 26.00 A 15.29 15.29 0 0 1 484.71 26.00 A 15.29 15.29 0 0 1 515.29 26.00 A 15.29 15.29 0 0 1 545.87 26.00 A 15.29 15.29 0 0 1 576.45 26.00 A 15.29 15.29 0 0 1 607.03 26.00 A 15.29 15.29 0 0 1 637.61 26.00 A 15.29 15.29 0 0 1 668.19 26.00 A 15.29 15.29 0 0 1 698.77 26.00 A 15.29 15.29 0 0 1 729.35 26.00 A 15.29 15.29 0 0 1 759.94 26.00 A 15.29 15.29 0 0 1 790.52 26.00 A 15.29 15.29 0 0 1 821.10 26.00 A 15.29 15.29 0 0 1 851.68 26.00 A 15.29 15.29 0 0 1 882.26 26.00 A 15.29 15.29 0 0 1 912.84 26.00 A 15.29 15.29 0 0 1 943.42 26.00 A 15.29 15.29 0 0 1 974.00 26.00 A 15.32 15.32 0 0 1 974.00 56.64 A 15.32 15.32 0 0 1 974.00 87.27 A 15.32 15.32 0 0 1 974.00 117.91 A 15.32 15.32 0 0 1 974.00 148.55 A 15.32 15.32 0 0 1 974.00 179.18 A 15.32 15.32 0 0 1 974.00 209.82 A 15.32 15.32 0 0 1 974.00 240.45 A 15.32 15.32 0 0 1 974.00 271.09 A 15.32 15.32 0 0 1 974.00 301.73 A 15.32 15.32 0 0 1 974.00 332.36 A 15.32 15.32 0 0 1 974.00 363.00 A 15.32 15.32 0 0 1 974.00 393.64 A 15.32 15.32 0 0 1 974.00 424.27 A 15.32 15.32 0 0 1 974.00 454.91 A 15.32 15.32 0 0 1 974.00 485.55 A 15.32 15.32 0 0 1 974.00 516.18 A 15.32 15.32 0 0 1 974.00 546.82 A 15.32 15.32 0 0 1 974.00 577.45 A 15.32 15.32 0 0 1 974.00 608.09 A 15.32 15.32 0 0 1 974.00 638.73 A 15.32 15.32 0 0 1 974.00 669.36 A 15.32 15.32 0 0 1 974.00 700.00 A 15.32 15.32 0 0 1 974.00 730.64 A 15.32 15.32 0 0 1 974.00 761.27 A 15.32 15.32 0 0 1 974.00 791.91 A 15.32 15.32 0 0 1 974.00 822.55 A 15.32 15.32 0 0 1 974.00 853.18 A 15.32 15.32 0 0 1 974.00 883.82 A 15.32 15.32 0 0 1 974.00 914.45 A 15.32 15.32 0 0 1 974.00 945.09 A 15.32 15.32 0 0 1 974.00 975.73 A 15.32 15.32 0 0 1 974.00 1006.36 A 15.32 15.32 0 0 1 974.00 1037.00 A 15.32 15.32 0 0 1 974.00 1067.64 A 15.32 15.32 0 0 1 974.00 1098.27 A 15.32 15.32 0 0 1 974.00 1128.91 A 15.32 15.32 0 0 1 974.00 1159.55 A 15.32 15.32 0 0 1 974.00 1190.18 A 15.32 15.32 0 0 1 974.00 1220.82 A 15.32 15.32 0 0 1 974.00 1251.45 A 15.32 15.32 0 0 1 974.00 1282.09 A 15.32 15.32 0 0 1 974.00 1312.73 A 15.32 15.32 0 0 1 974.00 1343.36 A 15.32 15.32 0 0 1 974.00 1374.00 A 15.29 15.29 0 0 1 943.42 1374.00 A 15.29 15.29 0 0 1 912.84 1374.00 A 15.29 15.29 0 0 1 882.26 1374.00 A 15.29 15.29 0 0 1 851.68 1374.00 A 15.29 15.29 0 0 1 821.10 1374.00 A 15.29 15.29 0 0 1 790.52 1374.00 A 15.29 15.29 0 0 1 759.94 1374.00 A 15.29 15.29 0 0 1 729.35 1374.00 A 15.29 15.29 0 0 1 698.77 1374.00 A 15.29 15.29 0 0 1 668.19 1374.00 A 15.29 15.29 0 0 1 637.61 1374.00 A 15.29 15.29 0 0 1 607.03 1374.00 A 15.29 15.29 0 0 1 576.45 1374.00 A 15.29 15.29 0 0 1 545.87 1374.00 A 15.29 15.29 0 0 1 515.29 1374.00 A 15.29 15.29 0 0 1 484.71 1374.00 A 15.29 15.29 0 0 1 454.13 1374.00 A 15.29 15.29 0 0 1 423.55 1374.00 A 15.29 15.29 0 0 1 392.97 1374.00 A 15.29 15.29 0 0 1 362.39 1374.00 A 15.29 15.29 0 0 1 331.81 1374.00 A 15.29 15.29 0 0 1 301.23 1374.00 A 15.29 15.29 0 0 1 270.65 1374.00 A 15.29 15.29 0 0 1 240.06 1374.00 A 15.29 15.29 0 0 1 209.48 1374.00 A 15.29 15.29 0 0 1 178.90 1374.00 A 15.29 15.29 0 0 1 148.32 1374.00 A 15.29 15.29 0 0 1 117.74 1374.00 A 15.29 15.29 0 0 1 87.16 1374.00 A 15.29 15.29 0 0 1 56.58 1374.00 A 15.29 15.29 0 0 1 26.00 1374.00 A 15.32 15.32 0 0 1 26.00 1343.36 A 15.32 15.32 0 0 1 26.00 1312.73 A 15.32 15.32 0 0 1 26.00 1282.09 A 15.32 15.32 0 0 1 26.00 1251.45 A 15.32 15.32 0 0 1 26.00 1220.82 A 15.32 15.32 0 0 1 26.00 1190.18 A 15.32 15.32 0 0 1 26.00 1159.55 A 15.32 15.32 0 0 1 26.00 1128.91 A 15.32 15.32 0 0 1 26.00 1098.27 A 15.32 15.32 0 0 1 26.00 1067.64 A 15.32 15.32 0 0 1 26.00 1037.00 A 15.32 15.32 0 0 1 26.00 1006.36 A 15.32 15.32 0 0 1 26.00 975.73 A 15.32 15.32 0 0 1 26.00 945.09 A 15.32 15.32 0 0 1 26.00 914.45 A 15.32 15.32 0 0 1 26.00 883.82 A 15.32 15.32 0 0 1 26.00 853.18 A 15.32 15.32 0 0 1 26.00 822.55 A 15.32 15.32 0 0 1 26.00 791.91 A 15.32 15.32 0 0 1 26.00 761.27 A 15.32 15.32 0 0 1 26.00 730.64 A 15.32 15.32 0 0 1 26.00 700.00 A 15.32 15.32 0 0 1 26.00 669.36 A 15.32 15.32 0 0 1 26.00 638.73 A 15.32 15.32 0 0 1 26.00 608.09 A 15.32 15.32 0 0 1 26.00 577.45 A 15.32 15.32 0 0 1 26.00 546.82 A 15.32 15.32 0 0 1 26.00 516.18 A 15.32 15.32 0 0 1 26.00 485.55 A 15.32 15.32 0 0 1 26.00 454.91 A 15.32 15.32 0 0 1 26.00 424.27 A 15.32 15.32 0 0 1 26.00 393.64 A 15.32 15.32 0 0 1 26.00 363.00 A 15.32 15.32 0 0 1 26.00 332.36 A 15.32 15.32 0 0 1 26.00 301.73 A 15.32 15.32 0 0 1 26.00 271.09 A 15.32 15.32 0 0 1 26.00 240.45 A 15.32 15.32 0 0 1 26.00 209.82 A 15.32 15.32 0 0 1 26.00 179.18 A 15.32 15.32 0 0 1 26.00 148.55 A 15.32 15.32 0 0 1 26.00 117.91 A 15.32 15.32 0 0 1 26.00 87.27 A 15.32 15.32 0 0 1 26.00 56.64 A 15.32 15.32 0 0 1 26.00 26.00 Z" fill="none" stroke="#caa96a" stroke-width="0.8" stroke-opacity="0.5" transform="translate(7,7)" vector-effect="non-scaling-stroke"/></svg>